<svg id="visual" viewBox="0 0 960 540" width="960" height="540" xmlns="http://www.w3.org/2000/svg" xmlns:xlink="http://www.w3.org/1999/xlink" version="1.1"><path d="M0 94L13.3 93.8C26.7 93.7 53.3 93.3 80 100.3C106.7 107.3 133.3 121.7 160 122.7C186.7 123.7 213.3 111.3 240 108.7C266.7 106 293.3 113 320 117C346.7 121 373.3 122 400 114.7C426.7 107.3 453.3 91.7 480 86.5C506.7 81.3 533.3 86.7 560 94.2C586.7 101.7 613.3 111.3 640 118.7C666.7 126 693.3 131 720 125.5C746.7 120 773.3 104 800 97.2C826.7 90.3 853.3 92.7 880 99C906.7 105.3 933.3 115.7 946.7 120.8L960 126L960 0L946.7 0C933.3 0 906.7 0 880 0C853.3 0 826.7 0 800 0C773.3 0 746.7 0 720 0C693.3 0 666.7 0 640 0C613.3 0 586.7 0 560 0C533.3 0 506.7 0 480 0C453.3 0 426.7 0 400 0C373.3 0 346.7 0 320 0C293.3 0 266.7 0 240 0C213.3 0 186.7 0 160 0C133.3 0 106.7 0 80 0C53.3 0 26.7 0 13.3 0L0 0Z" fill="#000000" stroke-linecap="round" stroke-linejoin="miter"></path></svg>